HIERARCHY
ROOT Hips
{
	OFFSET 0.000000 0.000000 0.000000 
	CHANNELS 6 Xposition Yposition Zposition Zrotation Yrotation Xrotation
	JOINT LeftUpLeg
	{
		OFFSET 1.363060 -1.794630 0.839290 
		CHANNELS 3 Zrotation Yrotation Xrotation
		JOINT LeftLeg
		{
			OFFSET 2.448110 -6.726130 0.000000 
			CHANNELS 3 Zrotation Yrotation Xrotation
			JOINT LeftFoot
			{
				OFFSET 2.562200 -7.039590 0.000000 
				CHANNELS 3 Zrotation Yrotation Xrotation
				JOINT LeftToeBase
				{
					OFFSET 0.157640 -0.433110 2.322550 
					CHANNELS 3 Zrotation Yrotation Xrotation
					End Site
					{
						OFFSET 0.000000 0.000000 0.000000 
					}
				}
			}
		}
	}
	JOINT RightUpLeg
	{
		OFFSET -1.305520 -1.794630 0.839290 
		CHANNELS 3 Zrotation Yrotation Xrotation
		JOINT RightLeg
		{
			OFFSET -2.542530 -6.985550 0.000000 
			CHANNELS 3 Zrotation Yrotation Xrotation
			JOINT RightFoot
			{
				OFFSET -2.568260 -7.056230 0.000000 
				CHANNELS 3 Zrotation Yrotation Xrotation
				JOINT RightToeBase
				{
					OFFSET -0.164730 -0.452590 2.363150 
					CHANNELS 3 Zrotation Yrotation Xrotation
					End Site
					{
						OFFSET 0.000000 0.000000 0.000000 
					}
				}
			}
		}
	}
	JOINT Spine
	{
		OFFSET 0.028270 2.035590 -0.193380 
		CHANNELS 3 Zrotation Yrotation Xrotation
		JOINT Spine1
		{
			OFFSET 0.056720 2.048850 -0.042750 
			CHANNELS 3 Zrotation Yrotation Xrotation
			JOINT Neck1
			{
				OFFSET -0.054170 1.746240 0.172020 
				CHANNELS 3 Zrotation Yrotation Xrotation
				JOINT Head
				{
					OFFSET 0.104070 1.761360 -0.123970 
					CHANNELS 3 Zrotation Yrotation Xrotation
					End Site
					{
						OFFSET 0.000000 0.000000 0.000000 
					}
				}
			}
			JOINT LeftArm
			{
				OFFSET 3.362410 1.200890 -0.311210 
				CHANNELS 3 Zrotation Yrotation Xrotation
				JOINT LeftForeArm
				{
					OFFSET 4.983000 -0.000000 -0.000000 
					CHANNELS 3 Zrotation Yrotation Xrotation
					JOINT LeftHand
					{
						OFFSET 3.483560 -0.000000 -0.000000 
						CHANNELS 3 Zrotation Yrotation Xrotation
						JOINT LeftHandIndex1
						{
							OFFSET 0.715260 -0.000000 -0.000000 
							CHANNELS 3 Zrotation Yrotation Xrotation
							End Site
							{
								OFFSET 0.000000 0.000000 0.000000 
							}
						}
					}
				}
			}
			JOINT RightArm
			{
				OFFSET -3.136600 1.374050 -0.404650 
				CHANNELS 3 Zrotation Yrotation Xrotation
				JOINT RightForeArm
				{
					OFFSET -5.241900 -0.000000 -0.000000 
					CHANNELS 3 Zrotation Yrotation Xrotation
					JOINT RightHand
					{
						OFFSET -3.444170 -0.000000 -0.000000 
						CHANNELS 3 Zrotation Yrotation Xrotation
						JOINT RightHandIndex1
						{
							OFFSET -0.622530 -0.000000 -0.000000 
							CHANNELS 3 Zrotation Yrotation Xrotation
							End Site
							{
								OFFSET 0.000000 0.000000 0.000000 
							}
						}
					}
				}
			}
		}
	}
}
MOTION
Frames: 10
Frame Time: 0.041667
6.434898 20.660752 9.132927 -10.084144 -1.970084 51.673150 11.395201 -13.760133 -30.375925 -1.350780 -0.972953 -4.367725 -5.298308 22.474263 -11.459671 5.744700 14.176300 43.948400 22.862207 18.230811 -36.480800 0.033040 -0.008819 -2.504985 -0.056879 -22.784017 12.096592 -0.020200 0.918000 -2.523300 0.792322 3.822183 3.421488 -4.794579 2.741882 5.481240 6.233000 -0.854096 5.243174 2.464700 -0.147400 2.631200 -81.272278 14.696365 -38.177232 0.067671 -0.291614 -0.026063 0.227021 -0.101846 52.975803 -7.125000 0.000000 0.000000 91.545773 -20.797581 -46.150553 -3.442417 4.288363 -0.720590 1.710053 -0.094613 28.636419 7.125000 0.000000 0.000000 
6.540042 21.396263 9.349861 -6.997976 -2.444559 57.279410 7.937928 -14.514585 -35.367853 -1.609561 -0.511279 -3.601196 -6.031791 25.954461 -12.144379 8.184000 16.252900 53.222700 16.186493 14.896370 -42.950234 0.448012 -0.962039 0.663963 1.869501 -25.051515 -0.990110 -0.138600 -2.399500 6.611200 0.482259 2.491284 2.716649 -4.550068 2.045921 3.904884 8.501970 -0.860213 5.495001 3.286000 -0.077400 2.538200 -83.037630 11.778351 -51.017485 1.639906 -2.526188 -0.105129 0.325993 -0.257578 66.537775 -7.125000 0.000000 0.000000 91.671826 -19.313447 -43.455520 -3.881499 4.980028 -1.362352 2.343236 0.097620 26.827882 7.125000 0.000000 0.000000 
6.592217 22.108860 9.530391 -7.028153 -1.128754 61.979792 8.646992 -12.702681 -40.837218 -1.563815 1.121194 0.811311 -5.634776 24.574921 -11.976793 9.230600 16.953900 56.884300 14.897402 14.227502 -49.065331 0.429158 -3.175832 7.124596 2.061824 -24.700086 -3.172007 -1.654900 -8.106900 23.039100 0.799849 2.487032 2.265716 -4.776976 2.048740 2.232543 4.885454 -1.558955 1.506874 2.210200 -0.583200 1.191500 -83.454358 7.189630 -62.431954 2.657438 -4.150330 -0.330031 0.422098 -0.598447 80.065131 -7.125000 0.000000 0.000000 91.513537 -16.357428 -41.454566 -4.273101 5.453154 -1.429138 2.369343 0.055733 25.191267 7.125000 0.000000 0.000000 
6.589737 22.773349 9.684535 -7.928698 0.687079 66.642743 10.298444 -9.442483 -46.633330 -1.061089 3.308909 7.048922 -4.971260 22.601933 -6.529468 7.886600 16.035200 52.153200 15.265409 15.558558 -55.797922 -0.229213 -5.636610 14.429567 0.876785 -20.932466 5.421231 -0.045200 1.371900 -3.772600 1.350602 3.067094 2.163034 -4.303443 2.273382 1.285717 1.977139 -1.935721 -2.303672 0.989400 -0.831500 -0.093300 -82.774886 0.520461 -73.975277 2.780899 -4.451808 -0.520637 0.399070 -0.825165 92.417362 -7.125000 0.000000 0.000000 90.515722 -12.083657 -39.120847 -5.543146 6.901498 -1.463410 2.269902 -0.027043 22.935938 7.125000 0.000000 0.000000 
6.641417 23.350747 9.938468 -7.144196 0.405079 70.846446 8.509496 -8.372217 -52.292895 -0.334584 5.997151 14.739024 -3.364600 16.878008 -4.335406 5.348000 13.765300 42.305300 11.894471 14.953039 -61.054028 -1.261630 -7.990780 21.860275 0.098068 -14.314860 8.358214 -0.677200 5.262100 -14.657600 1.387242 2.970504 2.166244 -3.697527 2.160276 0.627776 0.875680 -2.476841 -5.095550 0.565800 -1.113600 -1.034500 -81.613895 -6.111498 -86.260764 2.579892 -4.399037 -0.906343 0.188124 -1.091922 100.655125 -7.125000 0.000000 0.000000 88.417301 -7.149489 -30.419050 -6.140387 7.695463 -1.591689 2.321147 0.077661 16.679757 7.125000 0.000000 0.000000 
6.684962 23.879541 10.201129 -7.271465 3.130786 74.465108 8.931589 -6.664230 -58.927304 1.483768 9.326767 25.298183 -2.289307 14.552496 4.321331 1.433200 7.569500 21.414000 13.701515 14.526026 -64.876422 -2.809172 -10.871839 31.100767 -0.293883 -8.907643 10.002502 -2.749000 10.277200 -29.879000 1.982072 3.192764 2.194157 -3.886318 2.249949 -0.010562 0.543040 -2.553934 -8.934682 0.450900 -1.146600 -2.468300 -79.229373 -12.901712 -98.414544 1.282277 -2.365728 -0.895950 -0.185213 -1.161520 112.350329 -7.125000 0.000000 0.000000 85.800387 -1.732125 -21.174872 -6.876265 8.656930 -1.809579 2.416959 0.086527 11.316887 7.125000 0.000000 0.000000 
6.730194 24.336222 10.510013 -7.029447 5.406245 77.542063 9.419412 -5.872450 -64.193455 3.934959 12.534370 36.852677 -1.427767 10.969943 6.058992 1.556100 7.872700 22.328200 15.831533 13.059625 -67.172180 -4.670942 -13.489285 40.404702 -0.233915 -7.345515 8.759841 -3.235800 11.067300 -32.507300 2.468822 3.548101 2.209958 -3.970517 2.361849 -0.813753 -0.051279 -3.018653 -12.268850 0.182900 -1.384700 -3.922400 -75.709567 -26.065421 -111.004772 4.300723 -6.060651 -1.274854 -0.613993 -1.195447 126.342853 -7.125000 0.000000 0.000000 82.665910 4.216249 -12.184585 -7.985614 9.998570 -2.059885 2.468053 0.093246 5.824715 7.125000 0.000000 0.000000 
6.787725 24.730015 10.907477 -5.866441 4.045925 79.536630 5.735350 -6.596338 -65.499960 6.235809 15.075873 46.606586 -0.960243 7.845046 4.127725 2.289100 9.443900 27.194100 13.948093 10.068893 -67.630961 -7.206028 -15.970122 50.923151 0.112281 -8.397769 4.592632 -4.005100 12.167300 -36.326200 2.312035 3.648899 2.208927 -3.405946 2.289314 -2.457925 -0.282508 -3.612128 -14.626901 0.072900 -1.692600 -5.066500 -71.705599 -34.573289 -124.069320 3.696520 -4.966285 -1.508879 -0.898110 -1.185867 144.034386 -7.125000 0.000000 0.000000 78.761619 11.293112 -5.710035 -11.085003 14.108302 -3.929539 2.433320 2.037459 3.445047 7.125000 0.000000 0.000000 
6.827105 25.076791 11.375862 -5.097247 2.736265 79.727869 2.027622 -6.930563 -63.665855 8.780062 17.114722 55.932045 -0.575470 5.067358 2.158105 1.754800 8.335600 23.738100 12.581228 7.358445 -64.401295 -10.206549 -18.018464 61.575905 0.318738 -7.744593 -1.314199 -4.024300 12.192600 -36.416900 2.110425 3.927500 1.730278 -2.929617 2.285295 -5.257409 -0.344296 -4.214710 -17.451589 0.046400 -2.005600 -5.673000 -67.774144 -44.442559 -136.748025 3.168420 -3.974897 -1.485660 -0.892529 -1.451201 164.080093 -7.125000 0.000000 0.000000 74.114020 18.652419 -1.033959 -12.817550 15.842759 -4.464898 2.460267 2.224313 -2.934844 7.125000 0.000000 0.000000 
6.844662 25.344511 11.800504 -4.771762 2.724111 81.467251 0.331947 -6.635394 -63.562626 11.875929 18.678215 65.988093 -0.287713 2.911772 -0.001243 1.326800 7.294600 20.591000 12.488827 5.900159 -61.804761 -13.101238 -19.330820 70.875096 0.365030 -7.836377 -2.793912 -3.104700 10.862700 -31.818200 2.179782 4.351107 1.175163 -2.579761 2.377722 -7.862664 -0.228263 -4.571650 -18.993721 0.113200 -2.190500 -6.332200 -62.356606 -52.490737 -152.207997 7.100721 -8.387626 -3.007103 -1.010155 -1.010158 -166.897406 -7.125000 0.000000 0.000000 68.553753 25.804806 1.028671 -15.816078 18.840886 -5.667021 2.298701 2.594955 -5.370352 7.125000 0.000000 0.000000 
